<?xml version="1.0" standalone="no"?>
<!DOCTYPE svg PUBLIC "-//W3C//DTD SVG 20010904//EN"
 "http://www.w3.org/TR/2001/REC-SVG-20010904/DTD/svg10.dtd">
<svg version="1.0" xmlns="http://www.w3.org/2000/svg"
 width="100" height="100" viewBox="0 0 1920.000000 1920.000000"
 preserveAspectRatio="xMidYMid meet">

<g transform="translate(0.000000,1920.000000) scale(0.100000,-0.100000)"
fill="#000000" stroke="none">
<path d="M9359 16895 c-323 -52 -619 -182 -854 -375 -81 -67 -244 -234 -295
-302 -23 -31 -40 -46 -50 -42 -59 22 -215 54 -308 63 -243 23 -493 -25 -717
-137 -387 -193 -652 -539 -747 -975 -19 -86 -22 -134 -23 -298 l0 -196 -162
-92 c-827 -471 -1528 -1127 -2070 -1936 -77 -115 -240 -382 -392 -642 -48 -82
-78 -124 -93 -129 -27 -8 -180 -83 -190 -92 -4 -4 1 -35 12 -68 10 -34 25 -94
34 -135 l15 -73 -54 -135 c-167 -424 -308 -982 -380 -1506 -50 -367 -69 -702
-62 -1095 17 -927 200 -1743 581 -2593 199 -444 440 -871 687 -1217 l89 -125
-143 -137 c-79 -75 -189 -188 -244 -250 -104 -117 -246 -298 -240 -305 2 -2
28 8 58 21 207 91 526 151 863 163 180 6 189 5 182 -12 -18 -49 -57 -201 -75
-295 -56 -296 -50 -623 18 -925 14 -60 20 -75 26 -60 101 259 244 498 386 645
67 70 178 162 190 158 4 -2 70 -51 146 -109 979 -753 2151 -1220 3373 -1343
463 -47 1035 -45 1426 4 1273 161 2362 617 3338 1398 l119 96 112 -116 c223
-228 383 -458 450 -643 10 -27 22 -54 26 -58 7 -9 36 109 61 248 20 110 17
488 -5 600 -23 117 -60 248 -97 341 -17 41 -30 77 -30 81 0 9 266 -6 405 -23
276 -33 514 -102 775 -222 134 -63 147 -67 127 -42 -69 85 -395 445 -453 500
-38 36 -131 119 -206 184 -76 66 -138 121 -138 123 0 2 17 27 38 56 21 29 70
99 109 157 1274 1905 1558 3962 847 6143 -36 111 -84 245 -106 298 l-39 96 75
152 c42 83 76 154 76 159 0 5 -15 15 -32 24 -18 9 -67 40 -108 71 l-75 55 -54
-74 c-30 -41 -58 -71 -62 -66 -4 4 -40 66 -80 137 -488 879 -1073 1559 -1830
2130 -186 141 -527 371 -694 469 l-100 59 0 171 c0 190 -15 286 -67 446 -66
205 -172 375 -333 535 -346 347 -785 470 -1274 358 l-74 -17 -40 49 c-284 343
-644 568 -1052 655 -130 28 -464 37 -596 15z m567 -399 c417 -104 762 -379
904 -720 18 -42 36 -79 41 -82 5 -3 60 20 122 50 190 94 371 128 558 106 282
-32 514 -155 665 -351 68 -88 160 -266 190 -364 25 -82 27 -105 28 -260 1
-185 -8 -240 -65 -379 -66 -163 -214 -352 -354 -451 -299 -212 -694 -253
-1033 -107 -125 54 -270 153 -389 266 l-99 95 69 73 c38 40 93 102 122 138 54
67 216 295 236 332 11 21 11 21 -17 0 -16 -12 -63 -58 -104 -104 -256 -284
-584 -466 -951 -529 -105 -18 -149 -20 -284 -16 -230 8 -401 51 -610 152 -131
63 -220 122 -333 219 -46 39 -100 85 -120 101 l-37 30 47 -60 c63 -82 143
-181 203 -250 l49 -57 -67 -64 c-209 -198 -409 -316 -645 -381 -88 -24 -115
-27 -277 -27 -146 -1 -194 3 -255 18 -495 126 -811 537 -786 1021 21 426 272
772 659 910 224 80 454 85 681 14 52 -15 237 -97 286 -126 3 -2 13 24 23 56
112 359 537 684 1002 766 56 10 134 13 260 11 151 -4 196 -8 281 -30z m2737
-2382 c74 -37 366 -237 537 -367 238 -181 441 -359 684 -597 l228 -226 -98
-158 c-55 -87 -115 -177 -135 -199 l-36 -41 -189 186 c-224 220 -299 289 -499
456 -241 202 -554 428 -826 597 l-46 28 86 83 c47 45 120 123 161 173 41 50
76 91 78 91 1 0 26 -12 55 -26z m-6013 -79 c36 -44 107 -123 158 -176 l94 -97
-104 -58 c-436 -245 -750 -475 -1058 -778 -183 -180 -245 -227 -423 -321 -174
-92 -766 -369 -773 -362 -5 5 98 168 169 267 386 539 950 1066 1522 1422 163
102 317 187 335 185 8 -1 44 -38 80 -82z m2323 -29 c41 -19 94 -40 116 -47 23
-7 45 -17 50 -23 5 -6 13 -76 19 -156 53 -760 123 -1765 127 -1845 24 -432 44
-568 45 -300 0 83 6 425 15 760 8 336 19 809 24 1053 4 243 10 445 13 448 3 3
55 0 114 -6 63 -7 156 -9 220 -5 l111 7 2 -319 c5 -788 21 -2002 27 -2040 10
-71 24 -48 24 40 0 126 17 373 50 745 17 185 44 519 60 742 17 223 39 497 50
610 11 113 21 218 22 233 3 26 11 32 89 62 47 18 104 42 126 53 l39 20 93 -91
92 -91 -10 -61 c-6 -34 -11 -93 -12 -131 0 -38 -4 -94 -9 -124 -9 -53 -58
-809 -80 -1215 -5 -110 -17 -319 -25 -465 -8 -146 -16 -306 -17 -357 -2 -52
-8 -97 -14 -103 -9 -9 -48 -8 -155 5 -196 23 -623 31 -889 16 -512 -28 -870
-85 -1140 -180 -63 -22 -115 -39 -117 -37 -2 2 -10 75 -18 162 -60 638 -139
1241 -246 1888 -21 132 -37 241 -35 244 10 9 249 33 256 25 23 -23 209 -966
384 -1938 37 -208 45 -192 21 45 -47 484 -130 1239 -180 1640 -13 107 -26 222
-30 255 l-6 60 38 14 c21 7 94 40 162 72 68 33 125 59 126 59 1 0 5 -21 8 -47
3 -27 54 -374 112 -773 58 -399 126 -869 151 -1045 24 -176 48 -338 53 -360
17 -76 12 189 -9 455 -10 140 -31 487 -45 770 -26 526 -37 702 -54 870 -5 52
-12 133 -15 180 l-6 85 91 88 c50 48 95 87 99 87 4 0 41 -15 83 -34z m2009
-411 l83 -33 0 -44 c-1 -23 -11 -131 -23 -238 -23 -206 -32 -332 -57 -735 -9
-137 -24 -347 -35 -465 -24 -265 -35 -514 -21 -483 6 12 24 107 41 210 17 103
42 258 56 343 14 85 57 322 96 525 38 204 87 469 109 590 22 121 42 228 45
237 5 16 17 17 117 11 62 -3 113 -6 114 -7 0 -1 -10 -57 -23 -126 -85 -446
-168 -1014 -204 -1395 -11 -121 -50 -692 -50 -740 -1 -57 -4 -57 -175 -5 -197
59 -345 93 -538 121 -99 15 -151 27 -154 36 -3 7 4 71 16 141 11 70 32 228 46
352 14 124 34 268 44 320 11 52 27 151 36 220 9 69 45 296 80 505 35 209 73
463 84 565 12 102 24 194 27 206 5 19 10 18 104 -29 55 -26 136 -63 182 -82z
m1284 4 c294 -173 613 -408 909 -673 111 -99 595 -578 595 -588 0 -11 -276
-481 -457 -778 -327 -537 -703 -1170 -746 -1256 -125 -250 -120 -332 49 -728
47 -109 94 -232 106 -272 l22 -72 -46 -90 c-58 -112 -189 -323 -261 -421 -38
-50 -74 -85 -115 -111 -66 -42 -101 -87 -228 -290 -42 -69 -81 -129 -85 -134
-4 -5 -28 9 -52 30 -199 174 -266 229 -396 327 -159 119 -340 234 -534 337
-169 91 -161 73 -77 170 184 214 271 341 368 537 87 178 111 210 225 309 136
118 297 318 405 499 112 190 202 469 231 715 15 133 24 340 15 340 -5 0 -29
-37 -54 -82 -85 -155 -215 -341 -281 -403 -77 -71 -167 -137 -268 -194 l-74
-42 7 173 c36 917 116 1648 267 2418 47 240 47 240 62 240 7 0 66 27 132 59
66 33 125 60 131 60 6 1 73 -36 150 -80z m-5100 12 c38 -16 99 -39 136 -51 41
-13 69 -28 72 -38 24 -84 174 -968 230 -1362 72 -499 146 -1201 146 -1384 0
-37 -8 -34 -133 61 -197 151 -385 360 -464 518 -20 39 -43 81 -53 95 -23 32
-94 252 -115 355 -9 44 -18 81 -21 84 -15 15 4 -245 30 -418 9 -53 20 -139 26
-191 33 -291 142 -614 293 -874 101 -174 184 -283 328 -431 149 -153 187 -206
254 -351 59 -126 128 -239 227 -371 69 -92 113 -146 231 -280 l19 -21 -69 -38
c-189 -103 -259 -145 -388 -229 -249 -162 -426 -304 -627 -503 l-118 -115 -29
64 c-72 158 -82 309 -42 593 22 153 23 169 12 410 -13 283 -29 451 -67 676
-79 473 -212 887 -434 1345 -168 348 -336 632 -678 1145 l-223 335 98 93 c447
426 768 664 1138 844 77 37 143 68 146 68 4 0 38 -13 75 -29z m7113 -913 l23
-44 -139 -245 c-153 -266 -406 -721 -638 -1144 -172 -314 -353 -638 -436 -781
-77 -132 -94 -180 -79 -232 12 -47 69 -102 149 -145 41 -23 54 -26 71 -17 25
13 177 240 410 610 221 351 369 575 615 930 109 157 236 344 283 415 160 248
178 271 199 254 7 -6 13 -22 13 -35 0 -57 -148 -309 -670 -1144 -445 -711
-690 -1117 -690 -1142 0 -17 98 -102 158 -137 103 -61 109 -61 163 7 72 90
128 173 256 377 124 198 450 701 776 1200 104 160 194 298 201 308 6 9 13 17
16 17 12 0 61 -95 57 -110 -5 -21 -147 -251 -435 -705 -129 -203 -293 -464
-364 -580 -72 -115 -178 -284 -237 -375 -132 -203 -161 -253 -161 -280 0 -32
80 -102 169 -149 43 -22 86 -41 94 -41 21 0 176 218 392 554 329 509 884 1337
949 1414 103 124 111 123 35 -4 -39 -65 -146 -252 -236 -414 -225 -403 -323
-570 -560 -959 -112 -183 -240 -397 -285 -475 -137 -239 -224 -359 -297 -406
-82 -55 -173 -73 -450 -90 -282 -18 -374 -42 -453 -122 -58 -58 -91 -107 -228
-339 -63 -108 -122 -206 -130 -218 l-15 -21 -75 36 c-41 20 -99 47 -128 60
-37 16 -51 27 -46 36 4 7 56 85 115 174 194 290 279 463 264 542 -12 65 -45
153 -120 317 -187 412 -184 464 56 872 45 76 149 255 232 398 82 143 266 454
407 690 141 237 324 543 405 680 264 445 316 527 328 516 7 -5 23 -29 36 -53z
m-8929 -382 c0 -2 14 -43 31 -91 17 -48 27 -90 23 -95 -5 -4 -58 -29 -119 -56
-134 -58 -465 -222 -595 -294 -147 -81 -344 -215 -384 -262 -21 -25 -36 -52
-36 -67 1 -34 38 -125 80 -192 18 -30 75 -127 127 -217 414 -719 822 -1260
1564 -2077 275 -303 303 -335 294 -335 -21 0 -454 318 -605 444 -280 235 -626
602 -836 886 -119 161 -158 216 -235 330 -122 179 -228 353 -369 605 -68 121
-127 225 -132 230 -11 12 9 -44 21 -60 5 -5 50 -104 101 -220 389 -883 837
-1558 1405 -2118 153 -151 155 -152 516 -391 264 -174 348 -250 454 -412 128
-195 208 -323 265 -424 68 -120 353 -681 348 -685 -5 -5 -181 -55 -194 -55 -6
0 -17 15 -25 33 -90 226 -315 706 -415 887 -140 254 -189 300 -471 444 -295
150 -574 346 -825 581 -147 138 -407 416 -493 530 -50 64 -110 140 -135 169
-54 61 -277 416 -409 651 -214 382 -368 770 -455 1149 -34 143 -81 406 -74
411 2 1 50 19 108 40 372 134 892 368 1270 570 156 83 200 104 200 91z m8788
-485 c17 -32 32 -64 32 -70 0 -6 -159 -267 -354 -579 -511 -819 -560 -895
-571 -899 -5 -1 -16 1 -23 6 -11 6 -7 21 17 70 17 34 47 85 65 114 18 28 93
162 166 297 347 641 617 1120 630 1120 3 0 20 -26 38 -59z m332 -602 c11 -20
-73 -158 -351 -579 -118 -179 -264 -401 -324 -494 -61 -92 -116 -171 -124
-174 -19 -7 -31 18 -20 45 5 13 53 94 107 181 96 153 500 839 598 1015 l49 87
28 -32 c16 -18 32 -40 37 -49z m-4660 -29 c515 -20 886 -82 1293 -217 l137
-45 0 -51 c0 -49 -20 -228 -26 -236 -1 -1 -51 29 -110 69 -125 83 -191 118
-294 154 -105 36 -360 77 -515 82 -148 4 -156 10 90 -62 132 -38 226 -82 325
-152 72 -51 195 -173 223 -221 18 -31 18 -31 -6 -40 -14 -5 -60 -15 -104 -21
-145 -21 -286 6 -588 115 -300 108 -428 135 -631 135 -182 0 -284 -22 -588
-124 -263 -89 -341 -109 -468 -121 -78 -7 -264 10 -273 25 -8 14 84 127 138
171 64 51 128 84 232 121 l80 28 -65 -6 c-274 -24 -414 -62 -564 -152 -55 -34
-66 -38 -70 -24 -6 20 -23 178 -31 279 -5 71 -5 73 22 87 45 22 211 74 309 95
211 47 685 98 1009 110 110 4 207 8 215 9 8 1 125 -3 260 -8z m-2206 -619
c312 -208 680 -318 949 -282 120 16 229 49 447 135 317 126 401 147 585 147
204 1 297 -21 610 -146 115 -45 260 -96 320 -111 102 -27 124 -29 290 -29 161
1 193 4 299 29 194 45 381 121 544 221 46 29 53 22 21 -19 -26 -33 -264 -214
-381 -290 -256 -166 -491 -249 -788 -277 -294 -28 -563 17 -798 132 l-123 61
-47 -31 c-83 -53 -202 -102 -317 -131 -392 -99 -836 -40 -1210 161 -153 82
-269 172 -410 318 -66 68 -145 142 -175 166 -45 35 -65 61 -107 142 -29 55
-53 102 -53 104 0 2 53 -48 118 -112 75 -73 157 -142 226 -188z m7776 55 c73
-220 180 -782 216 -1126 21 -214 30 -790 15 -1017 -72 -1053 -397 -2032 -983
-2954 -97 -151 -271 -394 -284 -394 -17 0 -343 150 -344 158 0 4 44 74 98 155
220 329 400 639 521 900 280 601 442 1194 518 1892 28 253 25 961 -4 1225 -25
217 -64 478 -98 644 l-23 114 42 66 c23 36 84 140 135 231 140 248 132 236
147 215 7 -10 27 -59 44 -109z m-660 63 l18 -42 -38 -61 c-20 -34 -104 -162
-185 -286 -370 -564 -397 -602 -411 -587 -14 14 114 243 381 682 196 322 204
335 211 335 3 0 13 -19 24 -41z m-10828 -424 c43 -99 117 -248 164 -332 l85
-152 -15 -108 c-84 -588 -65 -1278 50 -1878 35 -181 107 -462 166 -645 115
-356 318 -811 507 -1132 45 -76 81 -142 81 -147 0 -5 -18 -20 -39 -32 l-39
-24 80 -120 c45 -66 130 -189 189 -273 l109 -153 -52 -24 c-119 -52 -187 -86
-265 -129 l-82 -46 -45 58 c-115 150 -299 445 -438 700 -442 817 -685 1602
-775 2502 -24 245 -24 859 0 1120 38 396 94 715 173 979 l26 84 20 -34 c11
-18 56 -115 100 -214z m11017 -377 c53 -257 85 -713 78 -1123 -7 -391 -31
-617 -103 -973 -123 -602 -360 -1204 -707 -1792 -28 -47 -51 -87 -53 -88 -1
-2 -55 29 -120 68 -65 40 -192 111 -282 157 l-163 85 73 25 c383 129 683 395
863 767 141 292 216 636 241 1106 l7 134 -24 -17 c-259 -182 -427 -252 -884
-366 -285 -71 -377 -102 -550 -186 -363 -177 -635 -448 -711 -710 -20 -68 -23
-222 -6 -295 6 -24 10 -46 8 -47 -5 -5 -216 72 -216 79 0 4 22 47 50 94 57
100 91 197 120 339 24 120 58 192 265 560 173 308 248 459 248 499 0 18 -8 35
-23 46 l-24 18 38 83 c107 238 260 500 310 533 43 27 109 36 399 51 174 9 300
19 328 28 166 51 375 305 694 845 59 100 111 182 115 182 4 0 17 -46 29 -102z
m-5128 -241 c351 -118 750 -115 1128 9 57 19 106 33 107 31 2 -2 -12 -30 -32
-62 -142 -236 -398 -503 -664 -691 -221 -156 -450 -278 -663 -353 l-87 -31
-93 41 c-196 86 -458 239 -637 372 -125 94 -326 296 -425 429 -79 106 -177
256 -191 292 -6 17 -5 17 22 3 45 -23 210 -73 314 -95 268 -58 522 -53 764 12
98 27 222 75 257 100 20 13 26 13 58 -4 20 -10 84 -34 142 -53z m-5361 -277
c200 -296 397 -535 632 -767 167 -165 222 -214 378 -332 173 -132 323 -227
545 -343 349 -182 372 -202 460 -383 111 -225 415 -868 413 -870 -4 -4 -222
-65 -230 -65 -3 0 -4 53 -1 118 15 325 -132 588 -446 797 -199 132 -387 203
-872 325 -365 92 -476 128 -638 206 l-114 54 7 -57 c44 -381 168 -868 278
-1088 132 -264 310 -456 538 -578 36 -19 120 -56 188 -82 67 -26 121 -50 118
-52 -2 -2 -107 -55 -232 -117 -126 -62 -258 -130 -293 -150 -35 -20 -67 -33
-71 -29 -51 60 -214 357 -319 580 -331 704 -492 1404 -517 2243 -6 193 5 530
23 723 5 57 8 65 21 55 8 -7 67 -91 132 -188z m6263 -671 c390 -197 783 -468
1073 -742 l77 -73 -70 -104 c-91 -136 -325 -497 -438 -675 -48 -77 -91 -143
-95 -148 -3 -4 -67 1 -141 12 -130 19 -398 48 -664 71 -102 9 -132 15 -140 28
-24 40 -74 81 -113 93 -60 17 -115 -1 -171 -57 l-44 -45 -151 3 -151 3 -8 344
c-5 189 -5 448 0 575 l8 230 140 61 c253 111 535 266 735 404 41 28 78 51 82
51 5 0 37 -14 71 -31z m-1915 -83 c168 -111 374 -228 555 -317 l147 -72 0
-578 0 -577 -92 -6 c-51 -3 -190 -10 -308 -16 -324 -17 -638 -50 -1008 -106
-97 -15 -177 -22 -181 -18 -8 9 -375 568 -457 694 -64 100 -67 109 -52 128
240 312 673 661 1143 920 69 38 94 48 108 41 9 -6 75 -47 145 -93z m3681 -234
l33 -27 -147 -230 c-214 -332 -481 -762 -560 -900 -76 -133 -190 -311 -205
-320 -6 -4 -35 -1 -65 5 -66 14 -75 -11 90 240 67 102 180 277 250 390 135
216 376 595 489 768 36 56 70 102 74 102 4 0 23 -12 41 -28z m2081 -437 c0 -3
-14 -12 -32 -19 -17 -8 -33 -21 -35 -30 -2 -9 -5 -24 -6 -33 -2 -9 -10 -19
-18 -21 -8 -2 -10 0 -4 5 6 4 11 15 13 23 3 11 -2 10 -17 -4 -11 -10 -18 -23
-15 -28 3 -4 0 -7 -8 -6 -7 2 -12 -4 -10 -12 2 -8 1 -12 -3 -8 -4 3 -30 -11
-58 -33 -29 -21 -82 -53 -119 -71 -37 -17 -64 -36 -61 -41 3 -6 1 -7 -6 -3
-13 8 -103 -23 -97 -33 2 -3 -8 -7 -22 -7 -55 -3 -532 -223 -717 -330 -44 -26
-92 -53 -108 -61 -15 -8 -25 -19 -22 -24 4 -5 -1 -6 -9 -3 -8 3 -24 -4 -35
-15 -12 -12 -24 -22 -28 -23 -5 -2 -7 -7 -5 -11 1 -5 -2 -6 -8 -2 -11 7 -63
-29 -55 -37 3 -3 -1 -5 -8 -5 -7 0 -25 -8 -40 -18 -21 -14 -25 -20 -15 -27 9
-5 5 -7 -12 -6 -16 2 -24 -2 -22 -10 1 -8 -1 -11 -6 -8 -5 3 -29 -13 -53 -34
-24 -22 -40 -40 -35 -40 5 0 3 -7 -4 -15 -7 -8 -16 -13 -20 -10 -8 5 -43 -30
-46 -48 -7 -29 -56 -151 -69 -170 -13 -19 -15 -19 -21 -3 -12 32 15 149 54
230 90 187 261 363 489 505 177 109 323 169 618 253 334 94 534 164 630 219
32 19 45 23 45 14z m-9733 -75 c48 -18 277 -76 633 -160 494 -116 764 -275
931 -545 53 -85 103 -205 114 -270 6 -36 2 -32 -43 46 -27 47 -62 106 -79 130
-33 48 -182 194 -189 186 -3 -3 -16 6 -30 20 -13 13 -29 21 -36 17 -7 -5 -8
-3 -3 6 6 10 4 12 -9 7 -9 -4 -15 -3 -11 2 6 11 -61 55 -73 47 -5 -3 -18 1
-28 10 -18 14 -18 15 4 4 40 -19 23 -1 -19 20 -23 12 -47 19 -55 16 -8 -3 -13
-2 -10 3 8 12 -72 45 -233 97 -151 50 -144 48 -136 32 4 -7 1 -6 -7 2 -16 20
-194 74 -210 64 -6 -4 -8 -3 -5 3 6 9 -197 89 -220 87 -7 -1 -10 2 -7 7 3 5
-1 9 -8 9 -7 0 -63 22 -125 49 -87 37 -115 46 -130 38 -15 -9 -16 -8 -5 5 10
13 8 18 -15 34 -16 10 -32 17 -36 16 -5 -1 -6 2 -2 8 3 5 2 10 -4 10 -5 0 -12
-8 -14 -17 -3 -10 -4 -6 -4 10 2 32 -1 32 64 7z m16 -204 c3 3 3 -5 0 -18 -4
-19 -3 -20 7 -8 9 12 10 11 5 -6 -8 -29 116 -389 127 -368 3 5 3 3 1 -5 -5
-20 118 -262 130 -254 6 3 7 1 3 -5 -9 -14 33 -84 47 -75 6 3 7 1 3 -5 -9 -16
52 -104 66 -96 6 4 8 3 4 -4 -7 -11 101 -152 117 -152 6 0 2 10 -9 23 l-19 22
25 -22 c14 -11 34 -24 45 -27 11 -3 8 -4 -8 -2 l-29 4 39 -40 c58 -60 174
-151 239 -188 64 -37 127 -81 121 -86 -6 -6 -104 34 -185 75 -322 163 -561
482 -698 930 -33 108 -105 403 -103 426 0 6 15 -20 33 -57 19 -37 36 -65 39
-62z m9393 -81 c-49 -44 -77 -56 -38 -17 11 11 22 18 24 16 3 -2 15 7 28 21
13 14 26 25 29 25 3 -1 -16 -21 -43 -45z m7 -38 c-15 -19 -30 -32 -32 -30 -5
3 49 63 57 63 2 0 -9 -15 -25 -33z m-9098 -7 c3 -6 -1 -7 -9 -4 -18 7 -21 14
-7 14 6 0 13 -4 16 -10z m85 -128 c93 -92 117 -121 109 -132 -9 -13 -9 -13 -7
0 4 20 -69 94 -76 77 -3 -7 -4 -6 -3 3 3 24 -140 160 -161 154 -14 -5 -15 -4
-2 5 8 6 16 11 18 11 1 0 56 -53 122 -118z m-46 102 c3 -8 2 -12 -4 -9 -6 3
-10 10 -10 16 0 14 7 11 14 -7z m9199 -19 c-3 -9 -8 -14 -10 -11 -3 3 -2 9 2
15 9 16 15 13 8 -4z m-9258 -24 c-6 -5 -25 10 -25 20 0 5 6 4 14 -3 8 -7 12
-15 11 -17z m8980 19 c-3 -5 -12 -10 -18 -10 -7 0 -6 4 3 10 19 12 23 12 15 0z
m78 -12 c-4 -7 -8 -16 -9 -20 -1 -5 -2 -11 -3 -14 0 -3 -6 -2 -12 1 -7 5 -4
14 7 26 19 22 29 25 17 7z m-113 -13 c0 -2 -10 -9 -22 -15 -22 -11 -22 -10 -4
4 21 17 26 19 26 11z m-8899 -22 c13 -17 13 -17 -6 -3 -11 8 -22 16 -24 17 -2
2 0 3 6 3 6 0 17 -8 24 -17z m125 -9 c1 -9 0 -13 -4 -10 -3 4 -7 14 -8 22 -1
9 0 13 4 10 3 -4 7 -14 8 -22z m8710 -13 c-4 -5 -34 -28 -69 -51 -73 -50 -62
-35 15 21 58 41 62 43 54 30z m-8650 -28 c-10 -11 -19 -7 -22 10 -2 15 0 16
12 6 8 -6 12 -14 10 -16z m8754 14 c0 -2 -10 -12 -22 -23 l-23 -19 19 23 c18
21 26 27 26 19z m-8724 -23 c-4 -9 -1 -24 6 -33 11 -15 10 -15 -5 0 -16 13
-15 49 0 49 3 0 2 -7 -1 -16z m568 -2 c2 -4 -7 -8 -22 -9 -24 -2 -24 -1 -7 7
11 5 21 9 22 9 1 1 4 -3 7 -7z m7601 -12 c3 -5 1 -10 -4 -10 -6 0 -11 5 -11
10 0 6 2 10 4 10 3 0 8 -4 11 -10z m-8110 -42 c5 4 5 1 1 -6 -6 -10 -11 -10
-22 -1 -8 6 -14 14 -14 16 0 3 6 0 13 -6 8 -6 18 -7 22 -3z m8582 -12 c0 -8
-3 -15 -6 -14 -18 2 -22 -4 -12 -16 10 -12 9 -14 -6 -11 -10 2 -20 4 -22 4 -4
1 40 51 44 51 1 0 2 -6 2 -14z m-201 -11 c-1 -8 -5 -17 -8 -21 -5 -4 -4 16 1
34 3 9 9 -1 7 -13z m-8335 -22 c13 -16 12 -17 -3 -4 -10 7 -18 15 -18 17 0 8
8 3 21 -13z m8309 -6 c0 -2 -13 -13 -29 -25 -22 -16 -32 -19 -37 -9 -4 6 -4 9
1 5 4 -4 19 2 33 12 24 19 32 23 32 17z m-8257 -37 c4 0 5 6 1 13 -4 6 -4 9 0
5 4 -3 6 -9 4 -11 -1 -3 8 -18 22 -33 22 -24 19 -23 -17 6 -24 18 -43 36 -43
39 0 3 5 0 12 -7 7 -7 16 -12 21 -12z m-117 -22 l29 -33 -35 30 c-19 17 -37
31 -39 33 -2 1 0 2 5 2 6 0 23 -15 40 -32z m761 -10 c-3 -7 -5 -2 -5 12 0 14
2 19 5 13 2 -7 2 -19 0 -25z m-572 -16 c-3 -3 1 -12 8 -21 11 -14 10 -14 -6
-2 -9 8 -15 16 -12 19 3 3 -3 15 -12 26 -18 21 -18 21 5 2 12 -11 20 -21 17
-24z m-204 11 c13 -16 12 -17 -3 -4 -10 7 -18 15 -18 17 0 8 8 3 21 -13z
m7894 7 c-3 -5 -12 -10 -18 -10 -7 0 -6 4 3 10 19 12 23 12 15 0z m356 -13
c-10 -9 -11 -8 -5 6 3 10 9 15 12 12 3 -3 0 -11 -7 -18z m269 19 c0 -2 -7 -7
-16 -10 -8 -3 -12 -2 -9 4 6 10 25 14 25 6z m-230 -10 c0 -2 -8 -10 -17 -17
-16 -13 -17 -12 -4 4 13 16 21 21 21 13z m-8031 -47 c-10 -19 -8 -20 13 -15
12 3 17 3 10 0 -10 -5 -9 -11 5 -27 16 -18 14 -18 -14 3 -26 19 -30 26 -22 42
5 10 12 18 15 18 2 0 0 -9 -7 -21z m8188 3 c-11 -12 -14 -22 -7 -30 7 -9 7 -9
-2 -2 -8 7 -18 4 -32 -7 -12 -10 -5 -1 13 20 19 20 37 37 40 37 2 0 -3 -8 -12
-18z m-8341 -24 l29 -33 -35 30 c-19 17 -37 31 -39 33 -2 1 0 2 5 2 6 0 23
-15 40 -32z m8059 -6 c-3 -3 -11 0 -18 7 -9 10 -8 11 6 5 10 -3 15 -9 12 -12z
m555 -6 c0 -2 -8 -10 -17 -17 -16 -13 -17 -12 -4 4 13 16 21 21 21 13z m-8359
-49 c3 1 6 -4 6 -12 0 -11 -7 -9 -29 6 -34 24 -37 35 -5 17 12 -7 25 -12 28
-11z m8018 11 c-2 -2 -17 -14 -34 -28 l-30 -25 24 28 c14 15 29 27 34 27 6 0
8 -1 6 -2z m291 -12 c0 -2 -8 -10 -17 -17 -16 -13 -17 -12 -4 4 13 16 21 21
21 13z m-8486 -21 c-4 -8 -11 -15 -16 -15 -6 0 -5 6 2 15 7 8 14 15 16 15 2 0
1 -7 -2 -15z m7826 0 c0 -7 -30 -13 -34 -7 -3 4 4 9 15 9 10 1 19 0 19 -2z
m-8286 -21 c3 -8 2 -12 -4 -9 -6 3 -10 10 -10 16 0 14 7 11 14 -7z m501 -4
c10 -11 16 -20 13 -20 -3 0 -13 9 -23 20 -10 11 -16 20 -13 20 3 0 13 -9 23
-20z m201 -11 c19 -22 19 -22 -3 -8 -13 8 -23 17 -23 21 0 12 6 9 26 -13z
m7846 -27 c-15 -15 -29 -26 -31 -25 -6 4 41 53 50 53 4 0 -4 -13 -19 -28z
m-7800 11 c-6 -2 -9 -10 -6 -15 4 -7 2 -8 -5 -4 -13 9 -5 26 12 25 9 0 8 -2
-1 -6z m-176 -35 c16 -18 22 -27 13 -20 -9 6 -19 10 -22 7 -4 -3 -5 -2 -2 2 8
10 -16 33 -28 26 -6 -3 -7 -1 -3 5 10 16 8 17 42 -20z m208 0 c-5 -7 -1 -9 9
-5 10 4 16 2 14 -6 -1 -7 6 -11 15 -11 10 1 15 -3 11 -9 -4 -6 0 -8 10 -4 11
4 14 2 10 -8 -4 -12 -15 -8 -49 16 -25 17 -42 35 -39 40 4 5 11 7 16 3 5 -3 6
-10 3 -16z m7323 16 c-3 -3 -12 -4 -19 -1 -8 3 -5 6 6 6 11 1 17 -2 13 -5z
m391 -44 c-7 -10 -14 -17 -17 -15 -4 4 18 35 25 35 2 0 -1 -9 -8 -20z m-7719
-140 c15 -14 17 -16 4 -6 -13 11 -23 15 -23 10 0 -5 -4 -4 -8 2 -17 27 -95 83
-105 77 -7 -3 -9 -2 -4 2 4 5 -3 20 -15 33 -23 25 100 -71 151 -118z m7982
123 c13 -16 12 -17 -3 -4 -17 13 -22 21 -14 21 2 0 10 -8 17 -17z m-8681 -25
c11 -22 10 -22 -4 -4 -9 11 -16 14 -16 7 0 -7 -5 -9 -11 -5 -8 4 -7 9 2 15 18
11 17 12 29 -13z m815 0 c5 4 5 1 1 -6 -6 -10 -11 -10 -22 -1 -8 6 -14 14 -14
16 0 3 6 0 13 -6 8 -6 18 -7 22 -3z m6832 6 c-3 -3 -12 -4 -19 -1 -8 3 -5 6 6
6 11 1 17 -2 13 -5z m700 -22 c-10 -10 -14 -22 -10 -27 5 -4 3 -5 -4 -2 -6 4
-21 -5 -32 -19 -12 -15 -21 -23 -21 -18 0 8 70 84 79 84 2 0 -3 -8 -12 -18z
m-3357 -2 c1409 -77 2684 -428 3645 -1003 88 -52 168 -101 178 -109 16 -12 6
-31 -126 -233 -79 -121 -192 -288 -252 -370 -60 -83 -142 -197 -183 -255 -41
-58 -78 -108 -81 -113 -4 -4 -50 18 -102 50 -115 70 -581 294 -742 357 -572
225 -1358 392 -2177 461 -254 22 -883 31 -1135 16 -916 -53 -1704 -222 -2474
-531 -324 -130 -644 -279 -816 -380 -48 -29 -88 -50 -89 -48 -107 139 -382
528 -580 820 l-146 216 32 20 c75 46 303 164 443 230 1065 502 2278 801 3530
871 219 12 861 13 1075 1z m-4976 -26 c3 -8 2 -12 -4 -9 -6 3 -10 10 -10 16 0
14 7 11 14 -7z m853 1 c0 -8 -4 -12 -9 -9 -5 3 -6 10 -3 15 9 13 12 11 12 -6z
m63 -30 c5 3 12 0 16 -6 5 -8 3 -9 -6 -4 -10 6 -12 4 -7 -8 5 -14 0 -13 -23 5
-35 25 -39 34 -10 18 11 -6 25 -8 30 -5z m7397 -10 c0 -8 -4 -12 -9 -9 -4 3
-8 9 -8 15 0 5 4 9 8 9 5 0 9 -7 9 -15z m-8272 -5 c3 -5 1 -10 -4 -10 -6 0
-11 5 -11 10 0 6 2 10 4 10 3 0 8 -4 11 -10z m925 -4 c0 -2 -8 -10 -17 -17
-16 -13 -17 -12 -4 4 13 16 21 21 21 13z m7271 -9 c-6 -8 -7 -18 -3 -22 4 -5
2 -5 -5 -1 -6 3 -19 -4 -27 -16 -9 -12 -16 -18 -16 -13 0 5 12 22 27 37 27 29
44 39 24 15z m-7260 -34 c13 -16 12 -17 -3 -4 -10 7 -18 15 -18 17 0 8 8 3 21
-13z m41 -5 c-9 -9 -6 -17 15 -36 l28 -24 -33 22 c-26 18 -31 25 -21 36 6 8
14 14 17 14 3 0 1 -5 -6 -12z m-241 -25 c13 -16 12 -17 -3 -4 -10 7 -18 15
-18 17 0 8 8 3 21 -13z m7464 8 c3 -5 0 -13 -6 -17 -8 -5 -9 -3 -4 6 6 10 4
12 -9 7 -10 -4 -15 -3 -11 3 8 13 22 13 30 1z m-7535 -11 c8 -5 11 -10 5 -10
-5 0 -17 5 -25 10 -8 5 -10 10 -5 10 6 0 17 -5 25 -10z m378 -19 c-1 -16 -5
-28 -9 -26 -6 5 0 55 7 55 3 0 3 -13 2 -29z m7072 7 c-14 -11 -23 -26 -22 -32
2 -6 0 -8 -4 -3 -4 4 -15 1 -24 -5 -9 -7 1 4 23 25 22 20 42 37 46 37 3 -1 -5
-10 -19 -22z m-7341 -12 c9 -11 9 -16 -1 -22 -7 -4 -10 -4 -6 1 4 4 3 14 -3
22 -6 7 -9 13 -6 13 2 0 10 -6 16 -14z m-602 -22 c-3 -3 -12 -4 -19 -1 -8 3
-5 6 6 6 11 1 17 -2 13 -5z m630 0 c-3 -4 -2 -14 3 -24 7 -13 5 -16 -10 -15
-11 1 -23 5 -27 9 -5 4 -1 6 7 4 8 -1 15 3 16 10 3 20 4 22 11 22 3 0 3 -3 0
-6z m7320 -7 c0 -7 -9 -14 -20 -14 -19 -2 -19 -2 -1 12 11 8 19 15 20 15 0 0
1 -6 1 -13z m-7207 -71 c0 -1 -9 -2 -20 -2 -10 0 -17 2 -15 5 3 2 -1 11 -8 19
-9 11 -4 11 16 -2 15 -10 27 -19 27 -20z m-50 -15 c0 -6 -4 -12 -8 -15 -5 -3
-9 1 -9 9 0 8 4 15 9 15 4 0 8 -4 8 -9z m-373 -7 c-3 -3 -12 -4 -19 -1 -8 3
-5 6 6 6 11 1 17 -2 13 -5z m50 -10 c-3 -3 -12 -4 -19 -1 -8 3 -5 6 6 6 11 1
17 -2 13 -5z m4300 -1117 c78 -7 145 -16 149 -19 8 -8 -24 -59 -338 -531 -132
-199 -255 -389 -273 -422 -85 -150 -77 -251 28 -391 87 -115 306 -293 446
-362 65 -32 84 -37 145 -37 133 0 215 68 325 272 35 65 125 222 200 348 370
619 564 942 581 965 l19 25 183 -37 c405 -83 838 -217 1201 -373 196 -84 225
-100 215 -113 -23 -27 -301 -246 -420 -330 -640 -453 -1459 -751 -2359 -858
-155 -18 -688 -30 -864 -19 l-117 7 39 25 c110 73 210 205 237 314 23 92 21
211 -5 295 -27 89 -87 209 -192 381 -46 76 -153 262 -239 413 -85 151 -174
306 -197 344 -29 47 -39 71 -31 76 12 7 187 25 390 40 153 11 699 3 877 -13z
m496 -52 l38 -6 -37 -67 c-69 -124 -126 -216 -275 -442 -81 -124 -190 -294
-241 -377 -51 -84 -120 -191 -153 -238 l-60 -86 -26 31 c-15 17 -35 47 -45 65
-16 30 -16 37 -3 62 16 32 237 361 417 623 66 96 160 237 207 312 96 151 78
139 178 123z m-2284 -108 c19 -28 53 -83 76 -122 23 -38 120 -200 215 -360
170 -285 311 -544 345 -638 l18 -47 -27 -50 -27 -49 21 -80 c31 -123 28 -126
-49 -48 -110 109 -247 338 -511 852 -57 110 -123 236 -148 280 -108 191 -150
276 -139 281 24 8 143 32 167 33 20 0 33 -11 59 -52z m-516 -118 c20 -35 92
-163 159 -284 66 -121 180 -326 251 -455 72 -129 166 -300 210 -380 92 -169
155 -274 210 -348 21 -30 37 -55 35 -57 -5 -5 -269 52 -440 96 -510 130 -955
312 -1479 605 l-185 104 -67 137 c-92 192 -91 190 -64 208 81 53 446 183 892
318 349 106 419 126 430 123 5 -1 27 -32 48 -67z m6205 -82 c189 -85 546 -299
757 -452 125 -91 288 -225 281 -232 -1 -2 -34 3 -72 11 -215 45 -537 66 -734
47 -121 -12 -220 -28 -220 -37 0 -2 21 -34 46 -71 66 -96 120 -209 164 -342
40 -119 93 -358 88 -393 -2 -14 -22 4 -77 72 -252 307 -626 576 -1024 736 -59
24 -126 48 -148 54 -24 7 -38 15 -33 20 17 17 179 50 305 62 l126 12 86 109
c48 59 142 187 209 282 68 96 124 174 126 174 2 1 56 -23 120 -52z m-8553
-103 c55 -75 148 -202 208 -283 l107 -146 138 2 c85 2 193 -4 287 -15 l150
-18 -341 -172 c-188 -95 -393 -204 -455 -244 -208 -129 -397 -284 -520 -423
-34 -38 -65 -71 -69 -73 -9 -4 16 181 40 295 27 128 74 269 132 401 28 62 48
115 45 118 -3 3 -88 10 -189 16 -249 14 -462 5 -613 -26 -65 -14 -121 -23
-123 -22 -5 5 139 130 238 207 109 85 276 199 410 280 92 55 436 238 450 239
3 0 50 -61 105 -136z m7490 -675 c50 -16 164 -66 255 -111 l164 -81 -39 -34
c-269 -233 -787 -546 -1220 -738 -636 -282 -1226 -432 -1990 -507 -197 -20
-836 -16 -1045 5 -597 62 -1132 192 -1672 406 -508 202 -906 419 -1318 717
-145 106 -155 113 -149 118 2 3 56 28 119 56 63 29 171 81 241 115 l127 64
148 -88 c312 -184 535 -303 747 -397 615 -275 1200 -427 1867 -485 187 -17
703 -17 890 0 473 41 884 125 1305 266 459 153 817 333 1270 638 160 108 147
105 300 56z"/>
<path d="M10013 7901 c-91 -87 -74 -235 31 -285 69 -32 144 -17 197 41 38 40
49 66 49 113 0 48 -17 84 -57 122 -36 35 -73 48 -132 48 -43 0 -53 -5 -88 -39z"/>
<path d="M8991 7909 c-53 -38 -75 -86 -69 -155 7 -87 78 -154 164 -154 48 0
116 40 144 85 38 61 25 161 -26 206 -66 58 -149 65 -213 18z"/>
<path d="M12830 6969 c0 -5 5 -7 10 -4 6 3 10 8 10 11 0 2 -4 4 -10 4 -5 0
-10 -5 -10 -11z"/>
</g>
</svg>
